<svg width="293" height="44" viewBox="0 0 293 44" fill="none" xmlns="http://www.w3.org/2000/svg">
<path d="M168.585 28H170.17V22.8864H173.034C173.149 22.8864 173.258 22.8864 173.366 22.88L176.128 28H177.969L175.009 22.5923C176.678 22.0234 177.457 20.6619 177.457 18.9233C177.457 16.6094 176.077 14.9091 173.009 14.9091H168.585V28ZM170.17 21.4545V16.3153H172.957C175.08 16.3153 175.898 17.3509 175.898 18.9233C175.898 20.4957 175.08 21.4545 172.983 21.4545H170.17ZM182.034 14.9091H180.449V28H182.034V14.9091ZM185.563 14.9091V28H187.046V18.054H187.173L191.264 28H192.696L196.787 18.054H196.915V28H198.398V14.9091H196.506L192.057 25.7756H191.903L187.455 14.9091H185.563ZM209.49 18.1818H211.024C210.953 16.2067 209.132 14.7301 206.6 14.7301C204.095 14.7301 202.126 16.1875 202.126 18.3864C202.126 20.1506 203.404 21.1989 205.45 21.7869L207.061 22.2472C208.441 22.6307 209.669 23.1165 209.669 24.4205C209.669 25.8523 208.288 26.7983 206.473 26.7983C204.913 26.7983 203.532 26.108 203.404 24.625H201.768C201.921 26.7727 203.66 28.2301 206.473 28.2301C209.49 28.2301 211.203 26.5682 211.203 24.446C211.203 21.9915 208.876 21.1989 207.521 20.8409L206.191 20.483C205.22 20.2273 203.66 19.7159 203.66 18.3097C203.66 17.0568 204.811 16.1364 206.549 16.1364C208.135 16.1364 209.336 16.8906 209.49 18.1818Z" fill="#0659D4"/>
<path d="M33.9176 28H44.4602V25.733H36.5511V10.5455H33.9176V28ZM47.5599 28H50.1082V14.9091H47.5599V28ZM48.8469 12.8892C49.7247 12.8892 50.4577 12.2074 50.4577 11.3722C50.4577 10.5369 49.7247 9.84659 48.8469 9.84659C47.9605 9.84659 47.2361 10.5369 47.2361 11.3722C47.2361 12.2074 47.9605 12.8892 48.8469 12.8892ZM60.1092 14.9091H57.2882V13.733C57.2882 12.5739 57.7655 11.9432 59.0098 11.9432C59.5382 11.9432 59.9132 12.0625 60.1518 12.1392L60.7484 10.0767C60.3905 9.94034 59.649 9.72727 58.6178 9.72727C56.5467 9.72727 54.7314 10.9375 54.7314 13.392V14.9091H52.7115V16.9545H54.7314V28H57.2882V16.9545H60.1092V14.9091ZM68.1692 28.2642C71.0243 28.2642 73.0442 26.858 73.6237 24.7273L71.2118 24.2926C70.7516 25.5284 69.6436 26.1591 68.1947 26.1591C66.0129 26.1591 64.547 24.7443 64.4788 22.2216H73.7857V21.3182C73.7857 16.5881 70.9561 14.7386 67.9902 14.7386C64.3425 14.7386 61.9391 17.517 61.9391 21.5398C61.9391 25.6051 64.3084 28.2642 68.1692 28.2642ZM64.4874 20.3125C64.5896 18.4545 65.9362 16.8438 68.0072 16.8438C69.9845 16.8438 71.28 18.3097 71.2885 20.3125H64.4874ZM86.6375 15.1307H89.1773C89.1006 12.3352 86.629 10.3068 83.0835 10.3068C79.5807 10.3068 76.896 12.3097 76.896 15.3182C76.896 17.7472 78.6347 19.1705 81.4386 19.929L83.5011 20.4915C85.3676 20.9858 86.808 21.5994 86.808 23.1506C86.808 24.8551 85.1801 25.9801 82.9386 25.9801C80.9102 25.9801 79.2227 25.0767 79.0693 23.1761H76.4273C76.5977 26.3381 79.0438 28.2898 82.9557 28.2898C87.0551 28.2898 89.4159 26.1335 89.4159 23.1761C89.4159 20.0312 86.6119 18.8125 84.396 18.267L82.6915 17.8239C81.3278 17.4744 79.5125 16.8352 79.521 15.1648C79.521 13.6818 80.8761 12.5824 83.0239 12.5824C85.0267 12.5824 86.45 13.5199 86.6375 15.1307ZM92.6584 32.9091H95.2067V25.9631H95.3601C95.8203 26.7983 96.7578 28.2557 99.1442 28.2557C102.315 28.2557 104.616 25.7159 104.616 21.4801C104.616 17.2358 102.281 14.7386 99.1186 14.7386C96.6896 14.7386 95.8118 16.2216 95.3601 17.0312H95.147V14.9091H92.6584V32.9091ZM95.1555 21.4545C95.1555 18.7188 96.3487 16.9034 98.5732 16.9034C100.883 16.9034 102.042 18.8551 102.042 21.4545C102.042 24.0795 100.849 26.0824 98.5732 26.0824C96.3828 26.0824 95.1555 24.2074 95.1555 21.4545ZM110.319 20.2273C110.319 18.1392 111.64 16.946 113.456 16.946C115.211 16.946 116.26 18.0625 116.26 19.9801V28H118.808V19.6733C118.808 16.4091 117.018 14.7386 114.325 14.7386C112.288 14.7386 111.061 15.625 110.447 17.0398H110.285V10.5455H107.771V28H110.319V20.2273ZM128.15 28.2642C131.006 28.2642 133.025 26.858 133.605 24.7273L131.193 24.2926C130.733 25.5284 129.625 26.1591 128.176 26.1591C125.994 26.1591 124.528 24.7443 124.46 22.2216H133.767V21.3182C133.767 16.5881 130.937 14.7386 127.971 14.7386C124.324 14.7386 121.92 17.517 121.92 21.5398C121.92 25.6051 124.29 28.2642 128.15 28.2642ZM124.469 20.3125C124.571 18.4545 125.917 16.8438 127.988 16.8438C129.966 16.8438 131.261 18.3097 131.27 20.3125H124.469ZM136.894 28H139.443V20.0057C139.443 18.3011 140.764 17.0653 142.528 17.0653C143.022 17.0653 143.406 17.1676 143.713 17.321L144.531 15.1903C144.096 14.9006 143.534 14.7131 142.818 14.7131C141.266 14.7131 139.971 15.5824 139.494 16.9886H139.357V14.9091H136.894V28ZM151.93 28.2642C154.785 28.2642 156.805 26.858 157.385 24.7273L154.973 24.2926C154.512 25.5284 153.405 26.1591 151.956 26.1591C149.774 26.1591 148.308 24.7443 148.24 22.2216H157.547V21.3182C157.547 16.5881 154.717 14.7386 151.751 14.7386C148.103 14.7386 145.7 17.517 145.7 21.5398C145.7 25.6051 148.069 28.2642 151.93 28.2642ZM148.248 20.3125C148.351 18.4545 149.697 16.8438 151.768 16.8438C153.745 16.8438 155.041 18.3097 155.049 20.3125H148.248Z" fill="#0659D4"/>
<path fill-rule="evenodd" clip-rule="evenodd" d="M9.26525 30C8.3625 29.999 7.5455 29.632 6.95475 29.0398C6.36375 28.4475 5.999 27.6298 5.99999 26.7273C6.001 25.8243 6.368 25.0078 6.96025 24.4168C7.67175 23.707 8.87275 23.0923 8.874 22.087C8.87675 19.754 7.035 20.053 7.0375 17.9458C7.03825 17.3755 7.2565 16.8053 7.69225 16.3708C8.128 15.936 8.69475 15.719 9.26525 15.7198C9.83575 15.719 10.4025 15.936 10.8382 16.3708C11.2737 16.8053 11.4922 17.3755 11.4927 17.9458C11.4952 20.053 9.65375 19.754 9.65625 22.087C9.6575 23.0923 10.8587 23.707 11.5702 24.4168C12.1625 25.0078 12.5292 25.8243 12.5303 26.7273C12.5315 27.6298 12.1665 28.4475 11.5757 29.0398C10.9847 29.632 10.168 29.999 9.26525 30Z" fill="#0659D4"/>
<path fill-rule="evenodd" clip-rule="evenodd" d="M25.5852 17.6543C26.0355 18.4365 26.1262 19.3273 25.9087 20.1353C25.6915 20.943 25.1655 21.6678 24.3832 22.1183C23.601 22.5688 22.7102 22.6595 21.9022 22.442C20.932 22.1808 19.799 21.448 18.928 21.9493C16.906 23.1138 18.086 24.559 16.2597 25.6105C15.7655 25.895 15.1625 25.991 14.5682 25.831C13.974 25.671 13.5027 25.2888 13.218 24.7943C12.9322 24.3008 12.8367 23.7013 12.9952 23.1065C13.154 22.5118 13.5385 22.0378 14.032 21.752C15.8557 20.6965 16.5177 22.4408 18.5367 21.2718C19.4065 20.7685 19.3385 19.4205 19.5972 18.4495C19.813 17.6413 20.3367 16.9153 21.118 16.463C21.8992 16.0105 22.79 15.9178 23.5982 16.1333C24.4067 16.349 25.133 16.873 25.5852 17.6543Z" fill="#0659D4"/>
<path fill-rule="evenodd" clip-rule="evenodd" d="M6.56425 9.66726C7.0165 8.88601 7.7425 8.36201 8.551 8.14651C9.35925 7.93101 10.25 8.02376 11.0312 8.47601C11.8125 8.92826 12.3362 9.65426 12.552 10.4628C12.8107 11.4338 12.7427 12.7813 13.6125 13.285C15.6317 14.4538 16.2935 12.7095 18.1172 13.7653C18.6107 14.051 18.9955 14.525 19.154 15.1198C19.3125 15.7143 19.217 16.3138 18.9312 16.8073C18.6465 17.3018 18.1752 17.6843 17.581 17.844C16.9867 18.004 16.3837 17.908 15.8895 17.6235C14.0635 16.572 15.2432 15.1268 13.2215 13.9625C12.3505 13.461 11.2172 14.1938 10.247 14.455C9.439 14.6725 8.54825 14.582 7.766 14.1315C6.98375 13.681 6.458 12.9563 6.2405 12.1483C6.023 11.3403 6.11375 10.4495 6.56425 9.66726Z" fill="#0659D4"/>
</svg>
